<svg xmlns="http://www.w3.org/2000/svg" xmlns:xlink="http://www.w3.org/1999/xlink" viewBox="0 0 489.46 489.46"><defs><style>.cls-1{fill:url(#linear-gradient);}.cls-2{fill:#fff;}</style><linearGradient id="linear-gradient" x1="31.09" y1="27.36" x2="456.53" y2="460.23" gradientUnits="userSpaceOnUse"><stop offset="0" stop-color="#070135"/><stop offset="1" stop-color="#612d50"/></linearGradient></defs><title>Bootstrap</title><g id="Layer_2" data-name="Layer 2"><g id="svg2"><rect class="cls-1" width="489.46" height="489.46" rx="87.28" ry="87.28"/><g id="text3836"><path id="path3841" class="cls-2" d="M241.2,209q19.47,0,29.53-8.47t10.06-25q0-16.31-10.06-24.78-10.05-8.69-29.53-8.69H195.62V209H241.2M244,347.34q24.82,0,37.24-10.37,12.61-10.38,12.62-31.35,0-20.55-12.41-30.71Q269,264.53,244,264.53H195.62v82.81H244m76.61-113.73q26.54,7.62,41.09,28.17t14.56,50.41q0,45.74-31.25,68.19t-95,22.45H113.22V86.62h123.7q66.56,0,96.3,19.91,30,19.92,30,63.75,0,23.08-10.91,39.4-10.92,16.09-31.68,23.93"/></g></g></g></svg>