<svg xmlns="http://www.w3.org/2000/svg" viewBox="0 0 445.09 445.09"><defs><style>.cls-1{fill:#ed1652;}.cls-2{fill:#fff;}</style></defs><title>Logo</title><g id="Layer_2" data-name="Layer 2"><g id="Layer_1-2" data-name="Layer 1"><circle class="cls-1" cx="222.54" cy="222.54" r="222.54"/><path class="cls-2" d="M26.76,220.9,72.5,197v10.17a4.06,4.06,0,0,1-.58,2.11A4.7,4.7,0,0,1,70,211l-21,10.75a19.91,19.91,0,0,1-2.8,1.18q-1.47.5-3.15.9c1.12.26,2.17.56,3.15.89a19.91,19.91,0,0,1,2.8,1.18l21,10.8a4.72,4.72,0,0,1,1.91,1.65,4,4,0,0,1,.58,2.11v10.16L26.76,226.67Z"/><path class="cls-2" d="M110.21,214.2h3.64a9.38,9.38,0,0,0,3.64-.61,6.14,6.14,0,0,0,2.48-1.93l23-29.17a8.44,8.44,0,0,1,3-2.57,9.69,9.69,0,0,1,4-.72h13.4l-28.13,34.71a24.37,24.37,0,0,1-2.54,2.71,11.17,11.17,0,0,1-2.6,1.79,11.62,11.62,0,0,1,3.44,2,18.07,18.07,0,0,1,3,3.23l29,39.1H151.85a8.54,8.54,0,0,1-4.13-.78,6.54,6.54,0,0,1-2.28-2.28l-23.62-30.84a7.12,7.12,0,0,0-2.6-2.17,10.14,10.14,0,0,0-4.1-.66h-4.91v36.73H94.67V179.14h15.54Z"/><path class="cls-2" d="M248.94,221a45.17,45.17,0,0,1-3.06,16.87,37.93,37.93,0,0,1-21.95,21.83,46.93,46.93,0,0,1-17.27,3.06H174.78V179.2h31.88a46.52,46.52,0,0,1,17.27,3.09,39.16,39.16,0,0,1,13.34,8.6,38.57,38.57,0,0,1,8.61,13.2A45.16,45.16,0,0,1,248.94,221Zm-15.89,0a38.4,38.4,0,0,0-1.84-12.33,26.34,26.34,0,0,0-5.26-9.24,22.64,22.64,0,0,0-8.29-5.8,28.45,28.45,0,0,0-11-2H190.43v58.79h16.23a28.45,28.45,0,0,0,11-2,22.64,22.64,0,0,0,8.29-5.8,26.34,26.34,0,0,0,5.26-9.24A38.42,38.42,0,0,0,233.05,221Z"/><path class="cls-2" d="M305.88,194.39a4.24,4.24,0,0,1-1.47,1.79,3.76,3.76,0,0,1-2,.52,5,5,0,0,1-2.6-.9c-1-.59-2.1-1.26-3.41-2a28.32,28.32,0,0,0-4.59-2,19.19,19.19,0,0,0-6.21-.9,18.23,18.23,0,0,0-5.63.78,11.73,11.73,0,0,0-4,2.17,8.62,8.62,0,0,0-2.46,3.32,10.86,10.86,0,0,0-.81,4.24,7.34,7.34,0,0,0,1.65,4.91,13.7,13.7,0,0,0,4.36,3.35,40.74,40.74,0,0,0,6.18,2.49q3.47,1.09,7.08,2.34A68.46,68.46,0,0,1,299,217.4a24.74,24.74,0,0,1,6.18,4.16,19,19,0,0,1,4.36,6.15,21.33,21.33,0,0,1,1.65,8.84,28.84,28.84,0,0,1-1.94,10.6,24.32,24.32,0,0,1-5.66,8.6,26.61,26.61,0,0,1-9.09,5.78,33.68,33.68,0,0,1-12.31,2.11,39.66,39.66,0,0,1-7.85-.78,41.37,41.37,0,0,1-7.42-2.23,37.94,37.94,0,0,1-6.64-3.46,32.76,32.76,0,0,1-5.52-4.51l4.5-7.45a6,6,0,0,1,1.53-1.36,3.82,3.82,0,0,1,2-.54,5.52,5.52,0,0,1,3.12,1.18q1.66,1.19,3.95,2.63a30.54,30.54,0,0,0,5.37,2.63,20.79,20.79,0,0,0,7.43,1.18q6.63,0,10.28-3.15t3.64-9a8.39,8.39,0,0,0-1.65-5.37,13.34,13.34,0,0,0-4.36-3.49,33.17,33.17,0,0,0-6.18-2.4q-3.47-1-7-2.14a60.1,60.1,0,0,1-7-2.77,22.92,22.92,0,0,1-6.18-4.21,19.14,19.14,0,0,1-4.36-6.5,24.74,24.74,0,0,1-1.65-9.62,23,23,0,0,1,7.13-16.57,26,26,0,0,1,8.58-5.37,31.19,31.19,0,0,1,11.61-2,39.19,39.19,0,0,1,13.63,2.31,31,31,0,0,1,10.63,6.47Z"/><path class="cls-2" d="M327.25,262.89a8.21,8.21,0,0,1-1.33,2.3,7.76,7.76,0,0,1-1.84,1.65,8.92,8.92,0,0,1-2.2,1,7.85,7.85,0,0,1-2.25.35h-6l33.73-86.29a8.18,8.18,0,0,1,2.83-3.72,7.52,7.52,0,0,1,4.45-1.3h6.06Z"/><path class="cls-2" d="M372.59,250.58V240.42a3.94,3.94,0,0,1,.58-2.11,4.68,4.68,0,0,1,1.9-1.65l21-10.8a27.2,27.2,0,0,1,5.95-2.07q-1.68-.4-3.15-.9a19.43,19.43,0,0,1-2.8-1.18l-21-10.75a4.67,4.67,0,0,1-1.9-1.64,4,4,0,0,1-.58-2.11V197l45.74,23.86v5.77Z"/></g></g></svg>